<?xml version="1.0" encoding="utf-8"?>
<!-- Generator: Adobe Illustrator 18.1.1, SVG Export Plug-In . SVG Version: 6.00 Build 0)  -->
<svg version="1.0" id="Layer_1" xmlns="http://www.w3.org/2000/svg" xmlns:xlink="http://www.w3.org/1999/xlink" x="0px" y="0px"
	 viewBox="0 0 50 50" enable-background="new 0 0 50 50" xml:space="preserve">
<g>
	<path d="M43.1,10.8H21.7c-1.7,0-3.2,0.9-4,2.3c-0.7-0.1-1-0.1-1.2-0.1c-1.5,0-2.8,1.1-4.3,2.2c-0.4,0.3-0.9,0.7-1.3,1
		c-1.8,1.3-7.9,5.8-8.2,6c-0.6,0.4-0.7,1.2-0.3,1.7c0.2,0.3,0.6,0.5,1,0.5c0.3,0,0.5-0.1,0.7-0.2c0.1,0,6.4-4.7,8.1-6
		c0.5-0.3,0.9-0.7,1.4-1.1c1-0.8,2.1-1.6,2.7-1.6c0.1,0,0.2,0,0.6,0.1v10.3c-1.4,0.6-2.4,1-2.4,1c-0.6,0.3-0.9,1-0.7,1.6
		c0.3,0.6,1,0.9,1.6,0.7c0.1-0.1,1.5-0.6,3.2-1.3c0,0,0,0,0,0c2.5-1,5.7-2.4,7.1-3.1c1.6-0.8,2.9-1.1,3.7-0.9
		c0.2,0.1,0.4,0.2,0.5,0.5c0.2,0.4,0.2,0.8,0,1.2c-0.3,0.8-1.6,2.4-6.7,4.4c-0.2,0.1-0.4,0.2-0.6,0.4c0,0-1.9,2.6-4.9,4.2
		c-1.6,0.8-3.7,0.8-6.4,0.7c-2.1,0-4.6-0.1-7.3,0.3c-0.7,0.1-1.2,0.7-1.1,1.4C3.2,37.5,3.8,38,4.4,38c0.1,0,0.1,0,0.2,0
		c2.5-0.4,4.9-0.3,6.9-0.3c2.9,0.1,5.3,0.1,7.5-0.9c0.5,1,1.6,1.6,3,1.6c1,0,1.9-0.3,2.7-0.8c0.1,0.1,0.1,0.2,0.2,0.3
		c0.4,0.6,1.3,1.4,2.9,1.4c1.1,0,2.5-0.4,3.7-1.8c0.4,0.3,1,0.5,1.8,0.5c3.1,0,4.6-2.7,5.1-4.9h4.8c2.6,0,4.7-2.1,4.7-4.7v-13
		C47.8,12.9,45.7,10.8,43.1,10.8z M21.7,13.3h21.5c1.2,0,2.2,1,2.2,2.2v0.9H19.5v-0.9C19.5,14.2,20.5,13.3,21.7,13.3z M21.9,35.9
		c-0.5,0-0.7-0.1-0.9-0.4c1.2-0.8,2.1-1.7,2.7-2.4h0.7c-0.1,0.4-0.2,0.8-0.2,1.3C23.4,35.9,22.3,35.9,21.9,35.9z M27.7,36.7
		c-0.6,0-0.7-0.2-0.8-0.3c-0.4-0.6-0.2-2.2,0.2-3.4h3.1c-0.1,0.6-0.2,1.3-0.2,2C29.1,36.7,28.1,36.7,27.7,36.7z M33.2,35.5
		c-0.2,0-0.5,0-0.6-0.2c-0.2-0.4-0.1-1.3,0.2-2.2h2.9C35.3,34.1,34.6,35.5,33.2,35.5z M43.1,30.6H31.9c0,0,0,0,0,0h-4.1
		c2.5-1.3,4-2.7,4.5-4.2c0.4-1,0.4-2.1-0.1-3.1c-0.4-0.9-1.1-1.5-2-1.8c-1.8-0.6-4,0.2-5.6,1c-1,0.5-3.2,1.4-5.2,2.3v-6h25.8v9.6
		C45.3,29.6,44.3,30.6,43.1,30.6z"/>
</g>
</svg>
