<?xml version="1.0" encoding="utf-8"?>
<!-- Generator: Adobe Illustrator 18.1.1, SVG Export Plug-In . SVG Version: 6.00 Build 0)  -->
<svg version="1.1" id="Layer_1" xmlns="http://www.w3.org/2000/svg" xmlns:xlink="http://www.w3.org/1999/xlink" x="0px" y="0px"
	 viewBox="0 0 50 50" enable-background="new 0 0 50 50" xml:space="preserve">
<g>
	<path fill="#1A1A1A" d="M17.9,42.2c-0.2,0-0.4,0-0.5-0.1c-0.5-0.2-0.8-0.8-0.7-1.4l2.9-16.5L14.5,24c-0.4,0-0.7-0.2-1-0.5
		c-0.2-0.3-0.3-0.7-0.2-1.1l3.6-13.6c0.2-0.7,0.9-1.1,1.5-0.9c0.7,0.2,1.1,0.9,0.9,1.5l-3.2,12.1l5,0.2c0.4,0,0.7,0.2,0.9,0.5
		c0.2,0.3,0.3,0.6,0.3,1L20,36.4l12.8-15.5h-4.5c-0.4,0-0.8-0.2-1-0.5s-0.3-0.8-0.2-1.1l3.1-8.9h-8.1c-0.7,0-1.2-0.6-1.2-1.2
		s0.6-1.3,1.2-1.3H32c0.4,0,0.8,0.2,1,0.5s0.3,0.8,0.2,1.1l-3.1,8.9h5.4c0.5,0,0.9,0.3,1.1,0.7c0.2,0.4,0.1,1-0.2,1.3L18.9,41.7
		C18.7,42,18.3,42.2,17.9,42.2z"/>
</g>
</svg>
