<?xml version="1.0" encoding="UTF-8"?>
<svg width="75px" height="75px" viewBox="0 0 75 75" version="1.1" xmlns="http://www.w3.org/2000/svg" xmlns:xlink="http://www.w3.org/1999/xlink">
    <!-- Generator: Sketch 52.6 (67491) - http://www.bohemiancoding.com/sketch -->
    <title>Logo</title>
    <desc>Created with Sketch.</desc>
    <g id="Page-1" stroke="none" stroke-width="1" fill="none" fill-rule="evenodd">
        <g id="Combined-Shape" fill="#51B37F">
            <path d="M37.5,75 C16.7893219,75 0,58.2106781 0,37.5 C0,16.7893219 16.7893219,0 37.5,0 C58.2106781,0 75,16.7893219 75,37.5 C75,58.2106781 58.2106781,75 37.5,75 Z M45.347,30.061 L52.181,26.338 C51.3649959,24.5699912 50.2770068,23.0400065 48.917,21.748 C47.5569932,20.4559935 45.8060107,19.5720024 43.664,19.096 L44.786,13.282 L38.513,13.282 L37.799,18.994 C35.9289907,19.3000015 34.2035079,19.8864957 32.6225,20.7535 C31.0414921,21.6205043 29.7325052,22.7084935 28.6955,24.0175 C27.6584948,25.3265065 27.0210012,26.7969918 26.783,28.429 C26.5449988,30.43501 26.8169961,32.1689927 27.599,33.631 C28.3810039,35.0930073 29.4264935,36.3084952 30.7355,37.2775 C32.0445065,38.2465048 33.3619934,39.0199971 34.688,39.598 C35.7420053,40.0400022 36.770495,40.4989976 37.7735,40.975 C38.776505,41.4510024 39.575497,42.0034969 40.1705,42.6325 C40.765503,43.2615031 40.9780009,44.0689951 40.808,45.055 C40.6379991,46.1770056 40.1025045,47.0439969 39.2015,47.656 C38.3004955,48.2680031 37.2040065,48.574 35.912,48.574 C34.0419907,48.574 32.5545055,47.970506 31.4495,46.7635 C30.3444945,45.556494 29.3670043,44.0350092 28.517,42.199 L22.04,46.432 C22.8560041,48.5740107 24.1479912,50.443992 25.916,52.042 C27.6840088,53.640008 29.7749879,54.6939974 32.189,55.204 L31.169,60.712 L37.391,60.712 L38.054,55.306 C41.1140153,54.897998 43.7319891,53.8100088 45.908,52.042 C48.0840109,50.2739912 49.375998,47.9280146 49.784,45.004 C50.1240017,42.2499862 49.5715072,39.9550092 48.1265,38.119 C46.6814928,36.2829908 44.7860117,34.8890048 42.44,33.937 C41.3859947,33.4949978 40.2810058,33.0530022 39.125,32.611 C37.9689942,32.1689978 37.0340036,31.6250032 36.32,30.979 C35.6059964,30.3329968 35.350999,29.4830053 35.555,28.429 C35.7250009,27.4769952 36.2264958,26.6950031 37.0595,26.083 C37.8925042,25.4709969 38.9039941,25.1819998 40.094,25.216 C41.4540068,25.2500002 42.533496,25.7429952 43.3325,26.695 C44.131504,27.6470048 44.8029973,28.7689935 45.347,30.061 Z"></path>
        </g>
    </g>
</svg>