<?xml version="1.0" encoding="utf-8"?>
<!-- Generator: Adobe Illustrator 19.2.1, SVG Export Plug-In . SVG Version: 6.00 Build 0)  -->
<svg version="1.0" id="Layer_1" xmlns="http://www.w3.org/2000/svg" xmlns:xlink="http://www.w3.org/1999/xlink" x="0px" y="0px"
	 viewBox="0 0 50 50" enable-background="new 0 0 50 50" xml:space="preserve">
<g>
	<g>
		<path d="M25,7.3C15.2,7.3,7.3,15.2,7.3,25c0,9.8,7.9,17.7,17.7,17.7c9.8,0,17.7-7.9,17.7-17.7C42.7,15.2,34.8,7.3,25,7.3z
			 M25,40.2c-8.4,0-15.2-6.8-15.2-15.2c0-8.4,6.8-15.2,15.2-15.2c8.4,0,15.2,6.8,15.2,15.2C40.2,33.4,33.4,40.2,25,40.2z"/>
		<path d="M35.7,23.9l-16-8.4c-0.4-0.2-0.9-0.2-1.2,0c-0.4,0.2-0.6,0.6-0.6,1.1v16.8c0,0.4,0.2,0.8,0.6,1.1c0.2,0.1,0.4,0.2,0.6,0.2
			c0.2,0,0.4,0,0.6-0.1l16-8.4c0.4-0.2,0.7-0.6,0.7-1.1C36.4,24.5,36.1,24.1,35.7,23.9z M20.4,31.3V18.7l12,6.3L20.4,31.3z"/>
	</g>
</g>
</svg>
