<?xml version="1.0" encoding="utf-8"?>
<!-- Generator: Adobe Illustrator 18.1.1, SVG Export Plug-In . SVG Version: 6.00 Build 0)  -->
<svg version="1.0" id="Layer_1" xmlns="http://www.w3.org/2000/svg" xmlns:xlink="http://www.w3.org/1999/xlink" x="0px" y="0px"
	 viewBox="0 0 50 50" enable-background="new 0 0 50 50" xml:space="preserve">
<g>
	<path d="M44.5,17.9l-4.8-3.5l-1.9-5.7c-0.2-0.5-0.6-0.9-1.2-0.9h-6l-4.8-3.5c-0.4-0.3-1-0.3-1.5,0l-4.8,3.5h-6
		c-0.5,0-1,0.3-1.2,0.9l-1.9,5.7l-4.8,3.5c-0.4,0.3-0.6,0.9-0.5,1.4L6.9,25l-1.9,5.7c-0.2,0.5,0,1.1,0.5,1.4l4.8,3.5l1.9,5.7
		c0.2,0.5,0.6,0.9,1.2,0.9h6l4.8,3.5c0.2,0.2,0.5,0.2,0.7,0.2s0.5-0.1,0.7-0.2l4.8-3.5h6c0.5,0,1-0.3,1.2-0.9l1.9-5.7l4.8-3.5
		c0.4-0.3,0.6-0.9,0.5-1.4L43.1,25l1.9-5.7C45.1,18.8,44.9,18.2,44.5,17.9z M40.6,25.4l1.7,5.2l-4.4,3.2c-0.2,0.2-0.4,0.4-0.5,0.6
		l-1.7,5.2h-5.5c-0.3,0-0.5,0.1-0.7,0.2L25,43.1l-4.4-3.2c-0.2-0.2-0.5-0.2-0.7-0.2h-5.5l-1.7-5.2c-0.1-0.3-0.2-0.5-0.5-0.6
		l-4.4-3.2l1.7-5.2c0.1-0.3,0.1-0.5,0-0.8l-1.7-5.2l4.4-3.2c0.2-0.2,0.4-0.4,0.5-0.6l1.7-5.2h5.5c0.3,0,0.5-0.1,0.7-0.2L25,6.9
		l4.4,3.2c0.2,0.2,0.5,0.2,0.7,0.2h5.5l1.7,5.2c0.1,0.3,0.2,0.5,0.5,0.6l4.4,3.2l-1.7,5.2C40.5,24.9,40.5,25.1,40.6,25.4z"/>
	<path d="M30.4,25.4c-2.5,0-4.4,2-4.4,4.6c0,2.6,1.9,4.6,4.4,4.6c2.5,0,4.3-2,4.3-4.6C34.7,27.4,32.8,25.4,30.4,25.4z M30.4,32.1
		c-1.1,0-1.9-0.9-1.9-2.1c0-1.3,0.7-2.1,1.9-2.1c1.1,0,1.8,0.9,1.8,2.1C32.2,31.2,31.4,32.1,30.4,32.1z"/>
	<path d="M24,20c0-2.6-1.9-4.6-4.3-4.6c-2.5,0-4.4,2-4.4,4.6c0,2.6,1.9,4.6,4.4,4.6C22.1,24.5,24,22.6,24,20z M17.8,20
		c0-1.3,0.7-2.1,1.9-2.1c1.1,0,1.8,0.9,1.8,2.1c0,1.2-0.7,2.1-1.8,2.1C18.6,22,17.8,21.2,17.8,20z"/>
	<path d="M32.4,14.9c-0.6-0.4-1.3-0.3-1.7,0.3L17.4,33.7c-0.4,0.6-0.3,1.3,0.3,1.7c0.2,0.2,0.5,0.2,0.7,0.2c0.4,0,0.8-0.2,1-0.5
		l13.3-18.5C33.1,16.1,33,15.3,32.4,14.9z"/>
</g>
</svg>
